<svg width="512" height="512" viewBox="0 0 512 512" fill="none" xmlns="http://www.w3.org/2000/svg">
  <defs>
    <radialGradient id="bank-halo" cx="0" cy="0" r="1" gradientUnits="userSpaceOnUse" gradientTransform="translate(256 250) rotate(90) scale(188 188)">
      <stop stop-color="#7ED2FF" stop-opacity="0.36"/>
      <stop offset="1" stop-color="#7ED2FF" stop-opacity="0"/>
    </radialGradient>
    <linearGradient id="bank-card-body" x1="130" y1="136" x2="386" y2="364" gradientUnits="userSpaceOnUse">
      <stop stop-color="#082A5A"/>
      <stop offset="0.48" stop-color="#0F5FB3"/>
      <stop offset="1" stop-color="#1092E6"/>
    </linearGradient>
    <linearGradient id="bank-card-stripe" x1="160" y1="200" x2="355" y2="298" gradientUnits="userSpaceOnUse">
      <stop stop-color="#ECF7FF" stop-opacity="0.94"/>
      <stop offset="1" stop-color="#A7D8FF" stop-opacity="0.42"/>
    </linearGradient>
    <linearGradient id="bank-chip" x1="191" y1="222" x2="244" y2="274" gradientUnits="userSpaceOnUse">
      <stop stop-color="#FFD988"/>
      <stop offset="1" stop-color="#D49A2D"/>
    </linearGradient>
    <filter id="bank-shadow" x="80" y="103" width="353" height="299" filterUnits="userSpaceOnUse" color-interpolation-filters="sRGB">
      <feFlood flood-opacity="0" result="BackgroundImageFix"/>
      <feColorMatrix in="SourceAlpha" type="matrix" values="0 0 0 0 0 0 0 0 0 0 0 0 0 0 0 0 0 0 127 0" result="hardAlpha"/>
      <feOffset dy="22"/>
      <feGaussianBlur stdDeviation="18"/>
      <feColorMatrix type="matrix" values="0 0 0 0 0.0118 0 0 0 0 0.0784 0 0 0 0 0.1804 0 0 0 0.34 0"/>
      <feBlend mode="normal" in2="BackgroundImageFix" result="effect1_dropShadow_1_1"/>
      <feBlend mode="normal" in="SourceGraphic" in2="effect1_dropShadow_1_1" result="shape"/>
    </filter>
  </defs>

  <circle cx="256" cy="250" r="188" fill="url(#bank-halo)"/>

  <g filter="url(#bank-shadow)">
    <g transform="translate(256 252) rotate(-12) translate(-256 -252)">
      <rect x="120" y="148" width="272" height="196" rx="34" fill="url(#bank-card-body)"/>
      <rect x="120" y="148" width="272" height="196" rx="34" fill="#FFFFFF" fill-opacity="0.06"/>
      <path d="M120 202H392V248H120V202Z" fill="#061A34" fill-opacity="0.58"/>
      <rect x="164" y="221" width="63" height="49" rx="10" fill="url(#bank-chip)"/>
      <path d="M195 221V270" stroke="#9F6A14" stroke-width="5"/>
      <path d="M164 246H227" stroke="#9F6A14" stroke-width="5"/>
      <path d="M179 221V270" stroke="#F6D48E" stroke-width="3"/>
      <path d="M211 221V270" stroke="#F6D48E" stroke-width="3"/>
      <rect x="248" y="274" width="104" height="13" rx="6.5" fill="url(#bank-card-stripe)"/>
      <rect x="248" y="297" width="72" height="10" rx="5" fill="#DBF1FF" fill-opacity="0.72"/>
      <path d="M313 181L334 237H317L302 193L286 237H270L292 181H313Z" fill="#FFFFFF"/>
      <path d="M334 181H356C377 181 392 193 392 212C392 232 377 244 356 244H346V271H334V181ZM346 193V232H355C369 232 379 224 379 212C379 201 369 193 355 193H346Z" fill="#D8EEFF"/>
      <rect x="120.5" y="148.5" width="271" height="195" rx="33.5" stroke="#CBE9FF" stroke-opacity="0.18"/>
    </g>
  </g>
</svg>
