<svg width="512" height="512" viewBox="0 0 512 512" fill="none" xmlns="http://www.w3.org/2000/svg">
  <defs>
    <radialGradient id="debt-halo" cx="0" cy="0" r="1" gradientUnits="userSpaceOnUse" gradientTransform="translate(256 250) rotate(90) scale(188 188)">
      <stop stop-color="#FFD37A" stop-opacity="0.36"/>
      <stop offset="1" stop-color="#FFD37A" stop-opacity="0"/>
    </radialGradient>
    <linearGradient id="debt-body" x1="150" y1="106" x2="360" y2="405" gradientUnits="userSpaceOnUse">
      <stop stop-color="#10223C"/>
      <stop offset="0.54" stop-color="#153E68"/>
      <stop offset="1" stop-color="#1F5C82"/>
    </linearGradient>
    <linearGradient id="debt-screen" x1="176" y1="143" x2="336" y2="363" gradientUnits="userSpaceOnUse">
      <stop stop-color="#F8FCFF"/>
      <stop offset="1" stop-color="#BFE8FF"/>
    </linearGradient>
    <linearGradient id="debt-accent" x1="192" y1="169" x2="318" y2="252" gradientUnits="userSpaceOnUse">
      <stop stop-color="#F7B84E"/>
      <stop offset="1" stop-color="#FF7E57"/>
    </linearGradient>
    <linearGradient id="debt-pin" x1="312" y1="239" x2="408" y2="347" gradientUnits="userSpaceOnUse">
      <stop stop-color="#FFEBB5"/>
      <stop offset="1" stop-color="#F4A93F"/>
    </linearGradient>
    <filter id="debt-shadow" x="110" y="84" width="306" height="376" filterUnits="userSpaceOnUse" color-interpolation-filters="sRGB">
      <feFlood flood-opacity="0" result="BackgroundImageFix"/>
      <feColorMatrix in="SourceAlpha" type="matrix" values="0 0 0 0 0 0 0 0 0 0 0 0 0 0 0 0 0 0 127 0" result="hardAlpha"/>
      <feOffset dy="24"/>
      <feGaussianBlur stdDeviation="18"/>
      <feColorMatrix type="matrix" values="0 0 0 0 0.0902 0 0 0 0 0.0529 0 0 0 0 0.0157 0 0 0 0.34 0"/>
      <feBlend mode="normal" in2="BackgroundImageFix" result="effect1_dropShadow_1_1"/>
      <feBlend mode="normal" in="SourceGraphic" in2="effect1_dropShadow_1_1" result="shape"/>
    </filter>
  </defs>

  <circle cx="256" cy="250" r="188" fill="url(#debt-halo)"/>

  <g filter="url(#debt-shadow)">
    <g transform="translate(252 246) rotate(-7) translate(-252 -246)">
      <rect x="145" y="121" width="218" height="270" rx="34" fill="url(#debt-body)"/>
      <rect x="145.5" y="121.5" width="217" height="269" rx="33.5" stroke="#FEE6A8" stroke-opacity="0.18"/>
      <rect x="169" y="148" width="170" height="216" rx="24" fill="url(#debt-screen)"/>
      <rect x="192" y="171" width="126" height="64" rx="18" fill="url(#debt-accent)"/>
      <path d="M211 216C211 195 227 179 248 179C270 179 286 195 286 216C286 238 270 254 248 254C227 254 211 238 211 216ZM228 216C228 228 237 237 248 237C260 237 269 228 269 216C269 205 260 196 248 196C237 196 228 205 228 216Z" fill="#FFFFFF"/>
      <path d="M276 243L304 271" stroke="#FFFFFF" stroke-width="14" stroke-linecap="round"/>
      <rect x="192" y="255" width="58" height="12" rx="6" fill="#0A458A" fill-opacity="0.72"/>
      <rect x="264" y="255" width="54" height="12" rx="6" fill="#F4A93F" fill-opacity="0.9"/>
      <rect x="192" y="282" width="126" height="12" rx="6" fill="#0A458A" fill-opacity="0.18"/>
      <path d="M206 324C220 305 237 303 251 318C265 333 280 331 296 307" stroke="#0F5D95" stroke-width="10" stroke-linecap="round"/>
      <path d="M206 337H302" stroke="#0A458A" stroke-width="7" stroke-linecap="round" stroke-opacity="0.18"/>
      <circle cx="254" cy="134.5" r="3.5" fill="#FFE9B7" fill-opacity="0.58"/>
      <rect x="235" y="377" width="38" height="6" rx="3" fill="#FFE9B7" fill-opacity="0.34"/>
    </g>
  </g>

  <g transform="translate(360 294) rotate(8) translate(-360 -294)">
    <path d="M360 226C326 226 302 251 302 284C302 328 360 386 360 386C360 386 418 328 418 284C418 251 394 226 360 226Z" fill="url(#debt-pin)"/>
    <path d="M360 226C326 226 302 251 302 284C302 328 360 386 360 386C360 386 418 328 418 284C418 251 394 226 360 226Z" stroke="#FFF7DF" stroke-opacity="0.66" stroke-width="6"/>
    <circle cx="360" cy="283" r="23" fill="#123B5D"/>
    <path d="M348 283H372" stroke="#FFE9B0" stroke-width="8" stroke-linecap="round"/>
    <path d="M360 271V295" stroke="#FFE9B0" stroke-width="8" stroke-linecap="round"/>
  </g>
</svg>
